<svg width="64" height="64" viewBox="0 0 64 64" fill="none" xmlns="http://www.w3.org/2000/svg">
<path d="M21.6389 46.5314C22.1919 45.9784 22.5026 45.2283 22.5026 44.4463C22.5026 43.6642 22.1919 42.9141 21.6389 42.3611C21.0859 41.8081 20.3358 41.4974 19.5537 41.4974C18.7717 41.4974 18.0216 41.8081 17.4686 42.3611L16.4651 43.3646L20.6354 47.5349L21.6389 46.5314Z" fill="white"/>
<path d="M15.2277 44.602L4.89272 54.937L9.06297 59.1073L19.398 48.7723L15.2277 44.602Z" fill="white"/>
<path d="M22.7682 42.253L35.6907 29.3303C37.4714 30.8525 39.7774 31.6536 42.3622 31.6536C42.9644 31.6524 43.5657 31.6107 44.1622 31.5286C47.6601 31.0536 51.1241 29.2536 53.9165 26.462C56.7089 23.6703 58.5081 20.2056 58.9831 16.7077C59.4706 13.1213 58.5159 9.9236 56.2956 7.7036C54.0754 5.4836 50.878 4.5286 47.2915 5.0161C43.7937 5.4911 40.329 7.2911 37.5374 10.0828C34.7457 12.8746 32.9456 16.3392 32.4706 19.837C32.0371 23.0287 32.7464 25.912 34.4724 28.073L21.5307 41.0155L22.7682 42.253ZM40.2291 29.6715C39.021 29.4102 37.8913 28.8684 36.9312 28.0898L41.1845 23.8366L43.6242 26.2765L40.2291 29.6715ZM46.748 18.2731L49.8367 15.1843L52.2765 17.6242L49.1875 20.7125L46.748 18.2731ZM47.95 21.95L44.8612 25.0386L42.4215 22.5988L45.5101 19.5102L47.95 21.95ZM45.5101 17.0353L43.0704 14.5955L46.1591 11.5068L48.5989 13.9466L45.5101 17.0353ZM44.2726 18.2728L41.1845 21.3625L38.7446 18.9226L41.8334 15.834L44.2726 18.2728ZM42.4709 29.904L44.8611 27.5136L46.5152 29.1677C45.2166 29.6327 43.8505 29.8815 42.4714 29.9042L42.4709 29.904ZM48.2546 28.4322L46.0986 26.2762L49.1875 23.1875L51.9307 25.9307C50.8218 26.9238 49.5857 27.7651 48.2551 28.4325L48.2546 28.4322ZM53.1784 24.7038L50.425 21.95L53.5137 18.8612L55.74 21.0875C55.0483 22.3999 54.1872 23.6158 53.1789 24.7041L53.1784 24.7038ZM56.5064 19.3795L54.7509 17.624L57.3575 15.0173C57.3316 16.5101 57.0437 17.9866 56.5069 19.3797L56.5064 19.3795ZM57.125 12.775L53.5137 16.3863L51.0739 13.9466L55.5436 9.47747C56.322 10.4374 56.8638 11.567 57.125 12.775ZM50.865 6.8016C52.1021 7.01582 53.2716 7.51787 54.279 8.26722L49.8367 12.7096L47.397 10.2697L50.865 6.8016ZM47.5275 6.7516C47.8677 6.70547 48.2025 6.67585 48.5334 6.65947L46.1595 9.03235L44.6191 7.49197C45.5578 7.13741 46.5332 6.88886 47.5271 6.75097L47.5275 6.7516ZM42.9102 8.25797L44.9227 10.2697L41.834 13.3585L39.2965 10.821C40.3836 9.81199 41.5986 8.95028 42.9102 8.25797ZM38.069 12.069L40.596 14.5958L37.5072 17.6846L35.5675 15.7448C36.2349 14.4142 37.0761 13.1781 38.069 12.069ZM34.8315 17.4841L36.269 18.9216L34.1074 21.0832C34.175 19.855 34.4191 18.6428 34.832 17.4841H34.8315ZM34.2544 23.4125L37.5072 20.1596L39.947 22.5993L35.7195 26.8268C34.971 25.8189 34.4692 24.6495 34.2544 23.4125Z" fill="white"/>
</svg>
