<svg width="61" height="61" viewBox="0 0 61 61" fill="none" xmlns="http://www.w3.org/2000/svg">
<path d="M16.1924 7.07297C29.122 -0.823483 46.0306 3.26291 53.927 16.1925C61.8235 29.122 57.7371 46.0306 44.8075 53.9271C31.878 61.8235 14.9694 57.7371 7.07294 44.8076C-0.823513 31.878 3.26288 14.97 16.1924 7.07297Z" stroke="white" stroke-width="3" stroke-miterlimit="10"/>
<path d="M6.42573 43.6906C26.3819 40.0044 46.3941 30.0919 53.2664 15.1627M20.7711 4.83545C19.1791 5.43836 17.6463 6.18738 16.1924 7.07293C3.26288 14.97 -0.823513 31.878 7.07294 44.8075C14.9694 57.7371 31.878 61.8235 44.8075 53.927C46.2637 53.0358 47.6337 52.0111 48.9 50.866C57.9396 30.4933 43.0831 9.68861 20.7711 4.83545Z" stroke="white" stroke-width="3" stroke-miterlimit="10" stroke-linecap="round" stroke-linejoin="round"/>
<path d="M7.49508 15.5215C1.91662 24.1096 1.38349 35.491 7.07296 44.8076C12.1463 53.1145 20.9401 57.7633 30.0077 57.9372C56.3542 29.7247 45.6054 16.9348 7.49508 15.5215ZM57.7609 27.3121C57.3058 23.3711 55.9975 19.5765 53.9271 16.1925C51.2834 11.8517 47.4805 8.335 42.9464 6.03839L42.9044 6.06279C46.3667 14.31 51.1595 21.8429 57.7609 27.3121Z" stroke="white" stroke-width="3" stroke-miterlimit="10" stroke-linejoin="round"/>
</svg>
