<svg width="58" height="58" viewBox="0 0 58 58" fill="none" xmlns="http://www.w3.org/2000/svg">
<path d="M56.337 32.923L56.55 32.692C57.512 31.722 58.027 30.437 57.999 29.07C57.972 27.697 57.4 26.428 56.401 25.507L46.716 16.301L31.729 0.316022C31.351 -0.0859776 30.718 -0.106978 30.316 0.271022C29.913 0.648022 29.892 1.28202 30.27 1.68502L44.718 17.096C41.588 21.548 36.885 24.033 35.236 24.803L11.722 0.308022C11.339 -0.0909775 10.705 -0.103978 10.308 0.279022C9.91 0.661022 9.897 1.29402 10.279 1.69302L33.78 26.173L31.57 30.372C29.913 23.263 23.521 18 16 18C7.178 18 0 25.178 0 34C0 42.822 7.178 50 16 50C16.127 50 16.254 49.99 16.382 49.987C16.141 50.638 16 51.332 16 52.056C16 55.333 18.667 58 21.944 58H31C32.335 58 33.591 57.479 34.563 56.507L35.778 55.191L36.294 55.707C36.488 55.902 36.744 56 37 56C37.256 56 37.512 55.902 37.707 55.707C38.098 55.316 38.098 54.684 37.707 54.293L37.135 53.721L39.618 51.032L40.293 51.707C40.488 51.902 40.744 52 41 52C41.256 52 41.512 51.902 41.707 51.707C42.098 51.316 42.098 50.684 41.707 50.293L40.975 49.561L45.858 44.272L46.293 44.707C46.488 44.902 46.744 45 47 45C47.256 45 47.512 44.902 47.707 44.707C48.098 44.316 48.098 43.684 47.707 43.293L47.216 42.802L51.619 38.033L52.293 38.707C52.488 38.902 52.744 39 53 39C53.256 39 53.512 38.902 53.707 38.707C54.098 38.316 54.098 37.684 53.707 37.293L52.977 36.563L54.98 34.394L55.294 34.708C55.488 34.902 55.744 35 56 35C56.256 35 56.512 34.902 56.707 34.707C57.098 34.316 57.098 33.684 56.707 33.293L56.337 32.923ZM20.135 46.315L17 44.434V40.567L21.106 38.103L26.01 40.935L24.715 43.396C24.421 43.955 23.967 44.399 23.402 44.681L20.135 46.315ZM7.382 45.01L7.465 40.083L10.895 38.103L15 40.566V44.434L10.765 46.975C9.541 46.479 8.406 45.814 7.382 45.01ZM2 34C2 33.334 2.063 32.684 2.153 32.042L6.464 29.649L10 31.691V36.309L6.464 38.351L2.154 35.958C2.063 35.316 2 34.666 2 34ZM10.765 21.025L15 23.566V27.434L10.894 29.898L7.464 27.918L7.381 22.991C8.406 22.186 9.541 21.521 10.765 21.025ZM24.619 22.982L24.536 27.917L21.106 29.897L17 27.434V23.566L21.24 21.022C22.46 21.517 23.595 22.18 24.619 22.982ZM29.969 33.065C29.975 33.147 30.008 33.218 30.032 33.293L26.943 39.163L22 36.309V31.691L25.536 29.649L29.851 32.044C29.899 32.382 29.946 32.72 29.969 33.065ZM16 38.834L12 36.434V31.567L16 29.167L20 31.567V36.434L16 38.834ZM29.215 29.404L26.536 27.917L26.587 24.864C27.73 26.184 28.628 27.72 29.215 29.404ZM18.635 20.253L16 21.834L13.37 20.256C14.223 20.093 15.1 20 16 20C16.9 20 17.78 20.089 18.635 20.253ZM5.413 24.867L5.464 27.917L2.792 29.4C3.379 27.721 4.272 26.187 5.413 24.867ZM2.792 38.6L5.464 40.083L5.413 43.133C4.272 41.813 3.379 40.279 2.792 38.6ZM16 48C15.1 48 14.223 47.907 13.37 47.744L16 46.166L18.177 47.472C18.015 47.605 17.86 47.744 17.714 47.892C17.148 47.961 16.573 48 16 48ZM33.121 55.121C32.563 55.68 31.789 56 31 56H21.944C19.77 56 18 54.23 18 52.056C18 50.552 18.835 49.201 20.181 48.529L24.295 46.47C25.237 46 25.994 45.259 26.484 44.327L27.095 43.166L28.552 43.895C28.696 43.966 28.849 44 28.999 44C29.366 44 29.719 43.798 29.895 43.447C30.142 42.953 29.942 42.352 29.448 42.105L28.028 41.395L29.18 39.207L30.554 39.894C30.696 39.966 30.849 40 30.999 40C31.366 40 31.719 39.798 31.895 39.447C32.142 38.953 31.942 38.352 31.448 38.105L30.111 37.437L31.262 35.249L32.553 35.894C32.696 35.966 32.849 36 32.999 36C33.366 36 33.719 35.798 33.895 35.447C34.142 34.953 33.942 34.352 33.448 34.105L32.195 33.478L33.346 31.29L34.553 31.894C34.696 31.966 34.849 32 34.999 32C35.366 32 35.719 31.798 35.895 31.447C36.142 30.953 35.942 30.352 35.448 30.105L34.278 29.52L35.719 26.783C37.147 26.16 42.491 23.586 46.164 18.534L54.823 26.764L47.294 34.293C46.903 34.684 46.903 35.316 47.294 35.707C47.488 35.902 47.744 36 48 36C48.256 36 48.512 35.902 48.707 35.707L55.922 28.492C55.968 28.693 55.995 28.9 55.999 29.111C56.016 29.935 55.704 30.71 55.121 31.293C55.111 31.303 55.102 31.312 55.094 31.321L33.121 55.121Z" fill="white"/>
</svg>
