<svg width="64" height="64" viewBox="0 0 64 64" fill="none" xmlns="http://www.w3.org/2000/svg">
<path d="M53.99 19.4987C53.9812 19.5375 53.9725 19.5775 53.9575 19.615C53.8375 20.0112 53.54 20.3375 53.2475 20.6362C51.5087 22.4037 49.505 23.91 47.3237 25.085C47.0025 25.26 46.6787 25.425 46.35 25.5837C44.6825 24.5462 42.8312 23.305 41.5437 21.8225L41.3587 21.6725C39.7825 24.2812 37.5412 26.6837 33.63 29.6875L33.015 29.4712C32.9362 29.4287 32.8562 29.3837 32.7775 29.3412C30.57 28.13 28.3125 26.865 26.6612 24.9987C26.4312 24.7387 26.2125 24.4675 26.0062 24.1825C27.9762 21.5287 28.7375 18.5337 29.0962 15.6C29.4562 12.665 29.405 9.60871 30.5725 6.89496C30.5725 6.89496 37.1537 7.83246 41.5425 7.56246C45.9312 7.29121 47.325 6.52246 47.325 6.52246C47.7525 10.5487 49.6862 14.3975 52.66 17.1437C53.3587 17.7875 54.1825 18.5737 53.99 19.4987Z" fill="white"/>
<path d="M32.7787 29.3437V29.69C31.3562 34.4362 28.7875 34.0037 26.4537 35.5937C22.5787 38.2362 18.2362 43.8 16.035 47.5037L15.9887 47.6037C15.9512 47.58 15.9137 47.5612 15.8725 47.5425C15.4587 47.3637 14.8887 47.5437 14.755 47.9737L14.6287 48.255C14.4375 48.1162 14.235 47.9875 14.0425 47.85C13.3325 47.3475 12.7212 46.705 12.2488 45.9725L12.4188 45.4912C13.2637 42.8825 14.1187 40.2575 15.4112 37.84C16.7025 35.42 18.4725 33.1925 20.8112 31.7612C21.735 31.1962 22.7425 30.755 23.565 30.055C24.9125 28.905 25.6175 27.19 26.2737 25.5437L26.6662 25.0012C28.3137 26.8675 30.5712 28.1325 32.7787 29.3437ZM57.1837 24.9199C57.1387 26.2961 56.3925 27.5711 55.4187 28.5474C54.4475 29.5224 53.2562 30.2449 52.0925 30.9836C48.0262 33.5661 44.1625 36.4649 40.5462 39.6486L40.3962 39.8574C40.0612 39.6399 39.5687 39.6511 39.3225 39.9624C39.3225 39.9624 39.2262 40.0799 39.1387 40.2349C39.0012 40.0174 38.845 39.8086 38.7 39.5949C38.1725 38.8049 37.8087 37.9061 37.6425 36.9699C37.6125 36.8036 37.585 36.6299 37.5287 36.4724L37.7212 36.4061C39.995 35.0349 40.8887 32.2499 42.375 30.0511C43.8462 27.8761 45.4337 26.4474 47.51 25.3436L47.3225 25.0874C49.5037 23.9124 51.5075 22.4049 53.2462 20.6386C53.5387 20.3386 53.8362 20.0124 53.9562 19.6174L54.45 19.9574C55.915 21.2486 57.245 22.9674 57.1837 24.9199ZM18.695 56.1036C18.3762 56.6274 17.8262 57.0111 17.22 57.1186C17.22 57.1186 16.63 57.2386 16.345 57.4536C16.2437 57.4486 16.14 57.4411 16.035 57.4324C13.6025 57.2286 11.9799 56.2574 10.9937 53.9999C10.0099 51.7411 7.4037 51.1899 6.8812 49.8286C6.55995 48.9911 7.4612 47.6561 8.3287 47.3374H8.58245L8.5187 47.5374C9.62245 48.1186 10.3549 49.2149 10.9212 50.3286C11.4849 51.4399 11.9362 52.6249 12.6925 53.6174C14.0275 55.3661 16.3087 56.3474 18.4962 56.1136L18.695 56.1036Z" fill="white"/>
<path d="M20.075 55.8437V55.8449C20.0575 56.2762 19.9212 56.6987 19.6687 57.0499C19.6687 57.0499 18.5687 57.5849 16.345 57.4524C16.63 57.2362 17.22 57.1174 17.22 57.1174C17.8262 57.0099 18.375 56.6274 18.695 56.1024C18.755 56.0062 18.805 55.9062 18.8487 55.8024C18.9125 55.6449 18.9575 55.4812 19.0425 55.3374C19.1262 55.1912 19.2587 55.0624 19.4237 55.0337C19.59 55.0049 19.7762 55.1137 19.8037 55.2799C19.8287 55.4374 19.9337 55.6624 20.075 55.8437Z" fill="white"/>
<path d="M20.075 55.8436C19.9338 55.6611 19.8288 55.4374 19.8038 55.2824C19.7775 55.1161 19.59 55.0074 19.4238 55.0361C19.2575 55.0649 19.1263 55.1936 19.0425 55.3399C18.9575 55.4849 18.9125 55.6486 18.8488 55.8049C18.8063 55.9086 18.7563 56.0086 18.695 56.1049L18.495 56.1136C16.3075 56.3474 14.0263 55.3661 12.6913 53.6174C11.935 52.6261 11.4837 51.4399 10.92 50.3286C10.355 49.2161 9.62121 48.1199 8.51746 47.5374L8.58122 47.3374L8.60621 47.2574C9.01621 46.4036 9.70997 45.6899 10.5512 45.2562C10.8612 45.0962 11.2337 44.9749 11.55 45.1211C11.8175 45.2424 11.9687 45.5224 12.12 45.7736C12.1612 45.8411 12.2025 45.9074 12.245 45.9736C12.7175 46.7061 13.3288 47.3486 14.0388 47.8511C14.2313 47.9886 14.435 48.1174 14.625 48.2562L14.7513 47.9749C14.885 47.5449 15.455 47.3649 15.8688 47.5436C15.91 47.5611 15.9475 47.5811 15.985 47.6049C16.3313 47.8086 16.545 48.1999 16.6275 48.5986C16.7188 49.0411 16.6725 49.4974 16.6488 49.9461C16.6063 50.7749 16.66 51.6649 17.1463 52.3387C17.7725 53.2074 18.9613 53.5099 19.6175 54.3537C19.9463 54.7737 20.1 55.3136 20.075 55.8436ZM41.5125 49.1951C41.3425 49.5964 41.0638 49.9488 40.6975 50.1901C40.6975 50.1901 39.3675 50.3114 37.165 49.2589C37.0888 49.2214 37.0138 49.1864 36.94 49.1464C37.6913 49.3139 38.385 49.385 38.385 49.385C38.9913 49.5013 39.6438 49.3339 40.1313 48.9577C40.2188 48.8877 40.2988 48.8152 40.3738 48.7352C40.4875 48.6127 40.59 48.4752 40.72 48.3677C40.85 48.2627 41.0213 48.1875 41.185 48.2213C41.3513 48.2538 41.4913 48.4214 41.4525 48.5851C41.4525 48.5851 41.395 48.9289 41.5125 49.1951Z" fill="white"/>
<path d="M40.13 48.9575C39.6437 49.3337 38.99 49.5012 38.3837 49.385C38.3837 49.385 37.69 49.3137 36.9387 49.1462C36.9375 49.1462 36.9375 49.1462 36.9375 49.1462C34.8812 48.1012 33.785 46.635 33.6687 44.26C33.5487 41.7987 31.3075 40.3587 31.3037 38.9012C31.3 38.0037 32.6162 37.0775 33.5412 37.0875C33.5412 37.0875 33.6662 37.1037 33.805 37.1412L33.6462 37.3387C34.47 38.275 34.7675 39.5587 34.9012 40.8C35.0337 42.0412 35.035 43.3075 35.39 44.5037C36.0175 46.6137 37.8025 48.34 39.9312 48.8975L40.13 48.9575Z" fill="white"/>
<path d="M41.5125 49.1951C41.395 48.9289 41.4525 48.5851 41.4525 48.5851C41.4913 48.4214 41.3513 48.2539 41.185 48.2214C41.0213 48.1876 40.85 48.2626 40.72 48.3676C40.59 48.4751 40.4888 48.6114 40.3738 48.7351C40.2988 48.8151 40.2188 48.8889 40.1313 48.9576L39.935 48.8989C37.8063 48.3414 36.0213 46.6151 35.3938 44.5051C35.0388 43.3089 35.0375 42.0426 34.905 40.8014C34.7713 39.5601 34.4738 38.2764 33.65 37.3401L33.8088 37.1426L33.8338 37.1101C34.5188 36.4576 35.4213 36.0364 36.3625 35.9301C36.7088 35.8914 37.1013 35.9089 37.3438 36.1589C37.4313 36.2476 37.49 36.3551 37.5313 36.4726C37.5888 36.6301 37.615 36.8039 37.645 36.9701C37.8113 37.9064 38.175 38.8051 38.7025 39.5951C38.8475 39.8089 39.0038 40.0176 39.1413 40.2351C39.2288 40.0801 39.325 39.9626 39.325 39.9626C39.5713 39.6501 40.0638 39.6401 40.3988 39.8576C40.4438 39.8864 40.4863 39.9189 40.5238 39.9551C40.8488 40.2689 40.93 40.7664 40.8588 41.2101C40.7875 41.6539 40.5825 42.0639 40.4 42.4776C40.0663 43.2376 39.8013 44.0876 40.0163 44.8926C40.2925 45.9251 41.2988 46.6314 41.6125 47.6526C41.7663 48.1564 41.7188 48.7089 41.5125 49.1951Z" fill="white"/>
<path d="M41.4125 21.9575C42.1112 22.7575 42.9262 23.4488 43.7762 24.0825C44.2062 24.4038 44.6475 24.7088 45.095 25.005C45.3175 25.1525 45.5425 25.2975 45.7687 25.4413C45.8725 25.5075 45.9762 25.5725 46.08 25.6375C46.2 25.7125 46.3012 25.805 46.445 25.7475C46.6862 25.6525 46.9187 25.5138 47.1487 25.3938C47.39 25.2675 47.6275 25.1375 47.865 25.0038C48.33 24.74 48.7862 24.4625 49.2337 24.17C50.1337 23.5813 50.995 22.9338 51.8125 22.235C52.2187 21.8875 52.6137 21.5275 52.9962 21.155C53.3575 20.8038 53.7587 20.4438 54.0012 19.995C54.23 19.5725 54.2675 19.0838 54.0925 18.635C53.9212 18.1938 53.6162 17.8225 53.2887 17.4875C52.9475 17.1388 52.5775 16.82 52.235 16.4713C51.8812 16.1125 51.545 15.7375 51.2262 15.3475C50.5975 14.5813 50.04 13.755 49.5575 12.89C48.5862 11.1512 47.9225 9.2437 47.6137 7.2762C47.575 7.02745 47.5425 6.77745 47.515 6.52745C47.4887 6.28995 47.1137 6.28745 47.14 6.52745C47.48 9.67245 48.7025 12.6963 50.6337 15.2013C51.115 15.8263 51.6387 16.4175 52.2025 16.9688C52.735 17.4888 53.3937 17.9775 53.7062 18.6763C53.8512 19.0013 53.875 19.3638 53.7337 19.6938C53.57 20.075 53.25 20.3738 52.9625 20.6613C52.3675 21.2563 51.7412 21.8213 51.0875 22.3538C49.6037 23.5613 47.9775 24.5913 46.2562 25.4263C46.3187 25.4263 46.3825 25.4263 46.445 25.4263C44.7362 24.3625 43.0125 23.2238 41.6775 21.6963C41.5187 21.51 41.2537 21.7763 41.4125 21.9575Z" fill="black"/>
<path d="M44.0912 14.8951C43.385 16.9764 42.625 19.0526 41.5475 20.9764C40.44 22.9539 38.9987 24.7026 37.3687 26.2714C36.16 27.4351 34.865 28.5064 33.5362 29.5276C33.455 29.5901 33.415 29.6876 33.4687 29.7839C33.5137 29.8639 33.645 29.9126 33.725 29.8514C35.9212 28.1626 38.055 26.3451 39.81 24.1901C41.1775 22.5101 42.25 20.6401 43.0937 18.6476C43.6 17.4501 44.0362 16.2251 44.4537 14.9951C44.5312 14.7664 44.1687 14.6676 44.0912 14.8951ZM33.11 29.3125C31.1237 28.2237 29.0887 27.1262 27.4425 25.5437C26.9775 25.0975 26.5475 24.6137 26.17 24.0912C26.17 24.1537 26.17 24.2175 26.17 24.28C27.5562 22.405 28.4225 20.2175 28.9037 17.9462C29.3937 15.6362 29.4487 13.2787 29.7487 10.9438C29.9225 9.59628 30.2 8.24502 30.7362 6.99003C30.83 6.77003 30.5075 6.57878 30.4125 6.80128C29.4587 9.03503 29.2987 11.4738 29.0875 13.8637C28.8875 16.1437 28.5675 18.4212 27.755 20.5737C27.2825 21.8275 26.6425 23.0125 25.8462 24.0912C25.81 24.14 25.8112 24.2312 25.8462 24.28C27.2212 26.18 29.18 27.515 31.1875 28.67C31.76 29 32.34 29.3175 32.92 29.635C33.1325 29.7525 33.3212 29.4287 33.11 29.3125ZM49.7975 24.1162C47.6787 24.9225 45.69 26.015 44.0862 27.64C43.2712 28.4662 42.5525 29.3987 41.935 30.3825C41.3137 31.3737 40.7975 32.4237 40.1925 33.4237C39.5287 34.5212 38.7375 35.5662 37.6262 36.2425C37.42 36.3675 37.6087 36.6925 37.815 36.5662C39.8287 35.34 40.7812 33.0837 41.9225 31.1287C43.06 29.1787 44.5487 27.4312 46.4462 26.1875C47.5225 25.4812 48.695 24.935 49.8962 24.4775C50.1212 24.3925 50.0237 24.03 49.7975 24.1162Z" fill="black"/>
<path d="M32.5975 29.64C32.1475 31.1325 31.4363 32.5937 30.1175 33.4987C29.1537 34.16 28.0175 34.4912 26.9962 35.0462C26.3337 35.4062 25.7287 35.8687 25.1437 36.3412C24.4362 36.9125 23.7637 37.5262 23.115 38.1637C21.7212 39.5362 20.4362 41.02 19.2325 42.56C18.1375 43.9612 17.1012 45.4125 16.1662 46.925C16.0662 47.0862 15.9687 47.2475 15.8725 47.41C15.7487 47.6175 16.0725 47.8062 16.1962 47.5987C17.085 46.1062 18.0813 44.6762 19.1337 43.295C20.32 41.7387 21.59 40.2412 22.9625 38.845C23.6212 38.175 24.305 37.5275 25.0237 36.9225C25.6275 36.4125 26.2575 35.91 26.94 35.5075C27.95 34.9125 29.095 34.585 30.09 33.9637C31.3813 33.1575 32.1912 31.895 32.71 30.4862C32.8012 30.24 32.8825 29.99 32.9588 29.7387C33.0288 29.5075 32.6663 29.4087 32.5975 29.64ZM26.0887 25.4949C25.525 26.9099 24.9337 28.3861 23.8675 29.5074C23.2925 30.1124 22.5887 30.5436 21.8637 30.9474C21.16 31.3399 20.46 31.7286 19.8125 32.2124C17.2425 34.1286 15.5012 36.9149 14.2537 39.8236C13.4675 41.6549 12.85 43.5511 12.235 45.4449C12.16 45.6749 12.5225 45.7736 12.5962 45.5449C13.6562 42.2761 14.7375 38.9486 16.6862 36.0836C17.5525 34.8111 18.585 33.6424 19.7975 32.6911C20.4275 32.1974 21.1112 31.7924 21.81 31.4049C22.53 31.0061 23.2537 30.5999 23.8625 30.0374C25.145 28.8511 25.8162 27.1836 26.4487 25.5949C26.54 25.3699 26.1775 25.2724 26.0887 25.4949ZM40.6787 39.7787C42.1837 38.455 43.73 37.1787 45.3175 35.9562C46.895 34.7412 48.5112 33.5775 50.1625 32.4662C50.9862 31.9125 51.82 31.3762 52.6587 30.845C53.4662 30.3337 54.27 29.8112 54.9987 29.19C56.3225 28.06 57.4312 26.4575 57.37 24.6475C57.3125 22.9262 56.2525 21.4275 55.0612 20.265C54.9062 20.1137 54.7463 19.9662 54.5838 19.8225C54.4038 19.6625 54.1375 19.9275 54.3187 20.0875C55.5387 21.1675 56.7125 22.545 56.9575 24.2112C57.215 25.9675 56.2162 27.5825 54.9637 28.7212C54.2725 29.35 53.4925 29.8687 52.7062 30.37C51.8887 30.8912 51.0712 31.41 50.2637 31.9475C48.64 33.03 47.05 34.165 45.4975 35.3475C43.9475 36.5287 42.435 37.7575 40.9625 39.0337C40.7788 39.1925 40.5963 39.3525 40.4137 39.5125C40.2325 39.6737 40.4987 39.9387 40.6787 39.7787Z" fill="black"/>
<path d="M15.8575 51.5C15.925 50.7075 15.9738 49.87 15.6388 49.1275C15.2813 48.3363 14.4775 47.9838 13.8375 47.465C13.175 46.9288 12.6513 46.285 12.2113 45.5588C12.0125 45.2288 11.7638 44.9238 11.3563 44.8763C10.945 44.8275 10.5438 45.0313 10.2025 45.2375C9.44753 45.6938 8.83253 46.37 8.44628 47.1625C8.34128 47.3788 8.66378 47.5688 8.77003 47.3513C9.08878 46.6963 9.56628 46.1225 10.1663 45.7075C10.4638 45.5013 10.8313 45.26 11.205 45.2438C11.6013 45.2263 11.7825 45.5738 11.96 45.8688C12.3575 46.53 12.8613 47.13 13.4513 47.6288C13.7438 47.8775 14.06 48.09 14.3763 48.3075C14.6863 48.5213 14.9913 48.755 15.1913 49.08C15.6313 49.7925 15.5513 50.7013 15.4838 51.4988C15.4625 51.74 15.8375 51.7388 15.8575 51.5Z" fill="black"/>
<path d="M8.28005 47.1586C7.75505 47.3586 7.33255 47.7736 7.03255 48.2399C6.7488 48.6799 6.5313 49.2536 6.67005 49.7811C6.88255 50.5911 7.76005 51.1086 8.40005 51.5524C9.2638 52.1511 10.1263 52.7886 10.6488 53.7236C10.7938 53.9824 10.9001 54.2599 11.0351 54.5236C11.1663 54.7811 11.3138 55.0299 11.4788 55.2674C11.7763 55.6936 12.1263 56.0811 12.5363 56.4024C13.3788 57.0624 14.4013 57.4099 15.4525 57.5561C16.6188 57.7186 17.8463 57.7261 19 57.4599C19.2288 57.4074 19.455 57.3436 19.6725 57.2536C19.7888 57.2061 19.8375 57.1474 19.91 57.0324C20.0713 56.7736 20.18 56.4786 20.23 56.1786C20.3313 55.5736 20.225 54.9286 19.8913 54.4099C19.555 53.8874 19.0238 53.5449 18.5088 53.2186C17.9875 52.8886 17.4513 52.5486 17.1525 51.9886C16.83 51.3849 16.8075 50.6649 16.8388 49.9974C16.8713 49.2961 16.9575 48.5411 16.5613 47.9161C16.25 47.4249 15.6713 47.1411 15.1075 47.3736C14.8538 47.4774 14.6663 47.6674 14.575 47.9274C14.495 48.1561 14.8575 48.2536 14.9363 48.0274C15.0113 47.8111 15.2363 47.6899 15.4563 47.6686C15.7225 47.6424 15.9588 47.7699 16.1325 47.9661C16.5788 48.4711 16.5087 49.2086 16.4738 49.8311C16.4375 50.4774 16.4388 51.1499 16.6525 51.7686C16.8488 52.3386 17.2175 52.7724 17.6963 53.1286C18.1575 53.4724 18.6813 53.7274 19.1188 54.1036C19.55 54.4749 19.8375 54.9649 19.8863 55.5386C19.9113 55.8274 19.8825 56.1174 19.795 56.3936C19.7538 56.5236 19.7 56.6486 19.6338 56.7674C19.6188 56.7936 19.6038 56.8199 19.5875 56.8461C19.5863 56.8474 19.5 56.9636 19.5575 56.9074C19.6125 56.8549 19.5738 56.9011 19.5688 56.8961C19.5638 56.8924 19.49 56.9274 19.5588 56.9011C19.5263 56.9136 19.4938 56.9274 19.4613 56.9386C19.3575 56.9774 19.25 57.0099 19.1438 57.0399C18.16 57.3136 17.1088 57.3336 16.0975 57.2549C15.08 57.1749 14.0538 56.9449 13.1788 56.4011C12.3288 55.8724 11.7113 55.0724 11.2813 54.1786C11.1625 53.9324 11.0601 53.6811 10.9201 53.4461C10.785 53.2186 10.6276 53.0024 10.4576 52.7999C10.1363 52.4186 9.76005 52.0911 9.36505 51.7886C8.7013 51.2811 7.91005 50.8736 7.35255 50.2386C7.10505 49.9561 6.9563 49.6261 7.0213 49.2436C7.1088 48.7336 7.4213 48.2599 7.79505 47.9111C7.96505 47.7511 8.1613 47.6086 8.3813 47.5249C8.60255 47.4349 8.5063 47.0724 8.28005 47.1586Z" fill="black"/>
<path d="M8.42375 47.6999C10.1525 48.6261 10.8125 50.6186 11.6462 52.2599C12.0775 53.1086 12.5937 53.9111 13.3012 54.5574C13.955 55.1549 14.7262 55.6161 15.5575 55.9224C16.4912 56.2661 17.505 56.4024 18.4962 56.3011C18.7337 56.2761 18.7362 55.9011 18.4962 55.9261C16.765 56.1036 14.985 55.5336 13.6737 54.3886C12.9512 53.7574 12.43 52.9686 11.9962 52.1199C11.5537 51.2561 11.1887 50.3511 10.69 49.5161C10.175 48.6549 9.51125 47.8561 8.615 47.3761C8.4 47.2611 8.21 47.5849 8.42375 47.6999Z" fill="black"/>
<path d="M17.27 57.2999C17.8425 57.1924 18.36 56.8636 18.715 56.4036C18.9063 56.1549 19.0113 55.8836 19.1275 55.5949C19.1788 55.4661 19.25 55.3186 19.3775 55.2486C19.4713 55.1974 19.6 55.2099 19.6238 55.3299C19.67 55.5661 20.0313 55.4661 19.985 55.2299C19.915 54.8711 19.4775 54.7574 19.1875 54.9249C18.8488 55.1199 18.79 55.5049 18.6325 55.8286C18.35 56.4086 17.8025 56.8186 17.17 56.9374C16.9325 56.9836 17.0338 57.3449 17.27 57.2999ZM14.2688 50.0576C15.13 50.3364 16.0988 50.1251 16.78 49.5339C16.9625 49.3751 16.6963 49.1114 16.515 49.2689C15.9325 49.7739 15.0988 49.9314 14.3688 49.6964C14.1375 49.6214 14.0388 49.9839 14.2688 50.0576ZM14.6413 51.3387C15.345 51.5762 16.1288 51.4225 16.7088 50.9675C16.7888 50.905 16.7738 50.7675 16.7088 50.7025C16.63 50.6237 16.5238 50.64 16.4438 50.7025C15.9675 51.075 15.3088 51.1687 14.7413 50.9762C14.5125 50.9 14.4138 51.2625 14.6413 51.3387ZM15.1925 52.5587C15.7775 52.495 16.34 52.2987 16.83 51.9712C16.9138 51.915 16.95 51.8062 16.8975 51.715C16.8488 51.6312 16.725 51.5912 16.6413 51.6475C16.2088 51.9362 15.7113 52.1262 15.1925 52.1837C15.0913 52.195 15.005 52.2625 15.005 52.3712C15.005 52.4637 15.0913 52.5687 15.1925 52.5587ZM39.0913 43.6764C39.4663 42.8964 39.8575 42.0389 39.7188 41.1514C39.5888 40.3201 38.9413 39.6976 38.5488 38.9839C38.345 38.6139 38.1775 38.2251 38.0488 37.8226C37.9238 37.4339 37.8588 37.0389 37.7725 36.6426C37.6938 36.2789 37.515 35.9626 37.1563 35.8176C36.8088 35.6776 36.415 35.7226 36.055 35.7851C35.1725 35.9401 34.35 36.3651 33.6988 36.9776C33.5225 37.1439 33.7888 37.4076 33.9638 37.2426C34.4938 36.7439 35.145 36.3876 35.8513 36.2114C36.17 36.1314 36.5338 36.0576 36.8613 36.1201C37.2213 36.1901 37.3513 36.4551 37.4188 36.7889C37.4925 37.1539 37.5575 37.5151 37.6688 37.8714C37.7825 38.2351 37.9263 38.5901 38.0963 38.9314C38.2713 39.2826 38.4788 39.6114 38.7038 39.9326C38.9175 40.2376 39.1475 40.5476 39.27 40.9039C39.5713 41.7839 39.1425 42.7051 38.765 43.4889C38.6638 43.7039 38.9875 43.8939 39.0913 43.6764Z" fill="black"/>
<path d="M33.5425 36.8999C32.9938 36.9012 32.45 37.1424 32.015 37.4662C31.6088 37.7687 31.215 38.1949 31.1338 38.7137C31 39.5674 31.66 40.3912 32.1113 41.0474C32.7175 41.9299 33.3138 42.8562 33.455 43.9424C33.4925 44.2349 33.4938 44.5299 33.53 44.8224C33.5638 45.0987 33.6113 45.3724 33.6788 45.6424C33.805 46.1412 33.9988 46.6274 34.2663 47.0687C34.815 47.9749 35.65 48.6587 36.5688 49.1649C37.5888 49.7262 38.7263 50.1662 39.8838 50.3287C40.1338 50.3637 40.39 50.3937 40.6425 50.3824C40.745 50.3774 40.8163 50.3412 40.9013 50.2774C41.1413 50.0987 41.3425 49.8762 41.5013 49.6237C41.815 49.1237 41.9463 48.5136 41.8625 47.9286C41.775 47.3237 41.4288 46.8099 41.0713 46.3312C40.7175 45.8561 40.3225 45.3762 40.18 44.7887C40 44.0399 40.2613 43.2549 40.56 42.5737C40.835 41.9449 41.155 41.3062 41.04 40.5999C40.9463 40.0174 40.5038 39.5174 39.885 39.5224C39.6213 39.5249 39.3613 39.6262 39.19 39.8312C39.0363 40.0149 39.3 40.2812 39.455 40.0962C39.6138 39.9062 39.8575 39.8599 40.0913 39.9249C40.3413 39.9936 40.5188 40.1912 40.61 40.4299C40.8475 41.0587 40.5363 41.7124 40.2825 42.2812C40.0013 42.9137 39.7475 43.5824 39.7488 44.2849C39.75 44.8974 39.9825 45.4437 40.3238 45.9424C40.6438 46.4112 41.03 46.8387 41.2863 47.3487C41.5325 47.8399 41.5788 48.3887 41.4175 48.9149C41.3375 49.1724 41.21 49.4199 41.04 49.6299C40.9563 49.7324 40.8625 49.8287 40.7613 49.9137C40.7375 49.9337 40.5713 50.0437 40.6988 50.0049C40.6963 50.0062 40.6925 50.0049 40.6888 50.0062C40.53 50.0312 40.3488 50.0049 40.1913 49.9911C39.1675 49.8961 38.16 49.5324 37.24 49.0899C36.3463 48.6599 35.49 48.0962 34.8788 47.3024C34.275 46.5187 33.9688 45.5599 33.8813 44.5824C33.8313 44.0274 33.7913 43.4999 33.605 42.9699C33.4388 42.4962 33.205 42.0487 32.9413 41.6224C32.6963 41.2287 32.4263 40.8524 32.1688 40.4687C31.9513 40.1424 31.7263 39.8037 31.5963 39.4312C31.4638 39.0549 31.46 38.6999 31.6775 38.3524C31.9463 37.9249 32.4075 37.5962 32.8738 37.4162C33.0888 37.3337 33.3138 37.2774 33.545 37.2774C33.7838 37.2749 33.785 36.8999 33.5425 36.8999Z" fill="black"/>
<path d="M33.515 37.4725C34.8588 39.0162 34.6863 41.2362 34.9288 43.1337C35.0488 44.075 35.2838 44.985 35.7438 45.82C36.1525 46.5612 36.7075 47.2275 37.36 47.7662C38.0988 48.3762 38.9563 48.8312 39.8838 49.0775C40.1175 49.14 40.2163 48.7775 39.9838 48.7162C38.3713 48.2875 36.9713 47.1912 36.1363 45.75C35.6588 44.9262 35.4138 44.0162 35.2975 43.075C35.1713 42.0587 35.1563 41.03 34.985 40.0187C34.8113 39 34.4688 37.9962 33.7813 37.2062C33.6213 37.025 33.3575 37.2912 33.515 37.4725Z" fill="black"/>
<path d="M38.335 49.5661C38.9 49.6661 39.4812 49.5699 39.9787 49.2824C40.2275 49.1386 40.435 48.9486 40.6237 48.7336C40.7225 48.6199 40.825 48.4949 40.9662 48.4336C41.0437 48.3999 41.2962 48.3749 41.2725 48.5336C41.2362 48.7699 41.5975 48.8711 41.6337 48.6336C41.685 48.2999 41.4275 48.0149 41.0875 48.0249C40.6962 48.0374 40.4712 48.3611 40.2262 48.6174C39.7725 49.0924 39.0825 49.3186 38.4362 49.2049C38.1987 49.1636 38.0962 49.5249 38.335 49.5661ZM38.1087 41.7175C38.8125 42.2813 39.785 42.46 40.6375 42.1475C40.8625 42.065 40.765 41.7025 40.5375 41.7863C39.8187 42.05 38.9762 41.935 38.3737 41.4525C38.295 41.3888 38.1862 41.375 38.1087 41.4525C38.0425 41.5175 38.0287 41.6538 38.1087 41.7175ZM38.0025 43.0475C38.5725 43.5163 39.3537 43.6838 40.0625 43.4638C40.2925 43.3925 40.1937 43.03 39.9625 43.1025C39.3887 43.2813 38.735 43.1675 38.2675 42.7838C38.1887 42.72 38.0787 42.7075 38.0025 42.7838C37.9362 42.8488 37.925 42.9838 38.0025 43.0475ZM38.1237 44.4075C38.6937 44.555 39.2912 44.5613 39.865 44.43C40.1 44.3763 40 44.015 39.765 44.0688C39.2562 44.185 38.7275 44.1763 38.2225 44.0463C37.99 43.985 37.89 44.3463 38.1237 44.4075Z" fill="black"/>
</svg>
